<?xml version="1.0" encoding="UTF-8"?>
<svg id="Camada_2" data-name="Camada 2" xmlns="http://www.w3.org/2000/svg" viewBox="0 0 1794.71 666.12" fill="#fff">
  <g id="Camada_1-2" data-name="Camada 1">
    <g>
      <path d="M351.91,144.36c-3.55-1.98-7.39-2.8-11.38-3.31-5.75-.74-11.27,0-17.2,1.89,1.37,.83,1.11,.72,2.44,1.35,4.7,2.26,9.18,4.94,13.42,7.98,4.72,3.39,9.47,6.78,11.82,12.41,.47,1.13,1.52,1.48,2.59,1.75,2.46,.63,4.99,.35,7.49,.52,.68,.05,.7-.21,.88-.72,.74-2.16,.19-4.27-.03-6.41-.72-6.86-3.93-12.08-10.01-15.47Z"/>
      <path d="M304.98,468.8c-.9,.29-2.29,.77-3.93,1.48-4.31,1.87-8.22,4.31-17.45,12.65-3.61,3.26-7.15,6.58-11.27,9.2-6.13,3.89-12.38,4.34-19.03,1.23-4.61-2.16-8.13-5.43-11.4-9.2-3.62-4.18-4.55-9.38-6.45-14.7,2.69,1.53,4.84,1.16,6.92-.23,.48,.65,.62,1.42,.82,2.18,1.06,3.87,3.1,7.07,6.5,9.33,5.07,3.37,10.56,3.1,15.99,1.51,6.56-1.92,11.98-5.77,16.67-10.67,.63-.45,1.56-1.27,1.86-2.53,.21-.87,.03-1.61-.07-1.96-2.52-9.24-5.81-14.43-5.81-14.43-9.26-14.59-16.06-17.89-18.3-21.07-.2-.29-1.13-1.66-2.42-1.73-.19-.01-.45-.03-.7,.12-.84,.46-.37,1.85-1.09,2.34-.54,.37-1.12-.21-2.3-.18-1.11,.03-1.93,.58-2.57,1.01-3.5,2.37-4.5,10.73-6.14,10.69-.3,0-.5-.29-.8-.73-2.56-3.74-3.84-5.6-3.85-5.63-.88-1.71-2.56-3.1-5.94-5.89-5.38-4.44-10.33-8.53-17.73-9.94-1.95-.37-6-1.1-10.96,.11-8.88,2.16-13.81,8.84-15.2,10.8-.48,.67-1.89,2.7-3.14,5.67-3.59,8.51-2.25,16.06-1.68,19.04,0,0,.85,4.47,4.66,10.1,.17,.25,.55,.79,1.21,1.02,1.72,.6,4.19-1.28,5.61-3.16,2.39-3.18,3.35-8.51,4.17-13.08,.07-.41,.27-1.52,1.05-1.88,.74-.34,1.66,.15,2.13,.43,7.6,4.49,10.04,8.11,10.04,8.11,7.8,11.62,14.81,27.12,14.81,27.12,6.27,13.87,9.5,20.91,14.09,26.32,4.03,4.75,9.61,11.18,19.3,14.57,0,0,6.96,2.44,23.98,.99,.6-.05,1.03-.22,1.3-.36,.78-.4,1.21-1.01,1.38-1.26,1.97-2.89,2.95-4.34,3.4-5.03,1.7-2.65,4.93-2.57,7.79-3.6,3.63-1.31,6.33-5.86,11.72-14.95,1.02-1.72,4.9-8.35,8.23-17.77,1.98-5.61,2.05-7.35,1.5-9.04-1.57-4.83-7.84-8.21-13.36-7.81-1.46,.11-2.67,.46-3.54,.79Z"/>
      <path d="M323.15,514.17c-.63,.82-1.27,1.63-1.88,2.46-4.97,6.81-8.33,14.29-8.68,22.79-.27,6.6-.26,13.23,.52,19.91,2.28-1.04,4.63-1.99,6.86-3.17,3-1.59,6-3.29,6.83-7.01,1.85-8.33,3.49-16.7,2.42-25.29-.33-2.68-1.16-5.31-3.12-7.33-.87-.9-1.96-1.58-2.95-2.36Z"/>
      <path d="M358.61,291.78c-4.24,6.12-7.71,12.74-12.03,18.82-.36,.5-.73,1.09-.41,2.01,2.77,8.07,5.43,16.18,8.15,24.35,5.04-7.35,10.03-14.36,11.82-23.44,.25-1.25,.28-2.55,.12-3.81-.87-6.82-3.36-13.11-6.59-19.09-.42,.32-.75,.7-1.07,1.16Z"/>
      <path d="M193.84,545.61c.17,1.21,1.08,2,1.82,2.78,6.15,6.44,11.32,13.68,17.22,20.33,1.51,1.71,3.27,3.19,5.2,4.4,8.6,5.39,17.67,9.64,27.53,11.83,5.04,1.12,10.13,1.77,15.27,2.26,13.67,1.31,27.37,.5,41.05,.86,2.61,.07,5.24,.28,7.95,.71-12.53,3.97-25.06,7.94-37.72,11.95,7.9,8.82,18.9,8.27,29.18,10.29-4.78,4.12-9.59,8.06-15.61,10.24-6.85,2.48-13.86,3.94-21.15,4.42-11.97,.78-23.15-2.36-34.17-6.44-7.54-2.79-14.96-5.91-22.83-7.73-.46-.11-.89-.34-1.54,0,2.32,7.3,4.64,14.62,7.08,22.3-3.74-1.74-6.69-3.95-9.62-6.21-7.01-5.4-13.14-11.66-18.16-18.96-1.13-1.64-1.51-3.73-2.94-5.22-8.53-4.8-15.42-11.48-21.96-18.65-3.4-3.73-6.43-7.77-9.9-11.43-2.55,4.56-1.43,9.16-.06,13.71,1.89,6.31,4.28,12.47,5.57,19.1-6.1-2.15-11.53-5.41-16.29-9.62-9.91-8.78-16.68-19.77-22.11-31.74-5.69-12.53-9.84-25.57-13.79-38.71-.21-.71-.48-1.4-.81-2.36-1.71,2.76-2.57,5.61-3.25,8.6-1,4.37-1.51,8.83-1.38,13.24,.19,6.52,1,13,2.18,19.46,2.26,12.39,5.74,24.42,9.89,36.26,4.25,12.11,8.89,24.07,13.99,35.86,3.35,7.75,6.66,15.51,10.13,23.59-3.71-1.06-7.11-2.02-10.45-3.26-10.59-3.92-20.14-9.65-28.94-16.61-6.12-4.84-11.55-10.44-16.86-16.18-7.42-8.02-13.55-16.97-19.55-26.02-3.05-4.6-5.92-9.31-8.55-14.15-8.57-15.75-16.74-31.72-24.76-47.77-3.23-6.46-6.75-12.8-11.26-18.5-1.78-2.26-3.77-4.36-6.55-6.13,.09,6.61,.4,12.73,.97,18.91,.13,1.37,.19,2.75,.24,4.12,.19,5.12,1.01,10.16,1.56,15.24,.78,7.31,2.15,14.52,3.44,21.73,1.43,8.02,3.42,15.94,5.54,23.81,3.04,11.32,6.4,22.56,8.16,34.18,.3,1.96,.76,3.99,.44,6.31-2.43-.93-4.47-2.34-6.42-3.8-8.27-6.17-14.47-14.09-19.5-23.06-.74-1.32-1.45-2.66-2.13-4.01V225.53c5.83-1.36,11.59-2.96,17.41-4.38,.95-.23,1.61-.33,1.8,1,.26,1.84,.75,3.65,.71,5.53,.88,1.96,1.76,3.92,2.72,6.05,1.4-1.95,2.82-3.79,4.09-5.71,4.89-7.43,10.28-14.49,16.08-21.21,7.71-8.94,16.54-16.67,27.09-22.16,4.76-2.48,9.76-4.53,15-5.87,3.22,1.25,5.91,3.39,8.72,5.29,11.08,7.46,21.75,15.62,34.96,19.55,2.32,.69,4.11,2.32,5.7,4.13,.67,.77,2.76,1.21,1.42,2.77-.28,.33-.4,.84-.47,1.29-.73,4.52-4.44,5.37-7.95,6.49-2.63,2.53-5.94,3.37-9.42,3.67-5.76,.49-11.15-1.14-16.35-3.34-6.48-2.74-12.82-5.83-19.31-8.55-5.09-2.14-10.34-3.38-16.02-2.49-7.85,1.23-12.74,5.88-15.56,12.91-2.77,6.9-2.61,14.09-1.4,21.32,.39,2.31,.68,4.63,1.73,6.76,0,0,0,0,0,0h0c3.11,1.47,5.88,3.52,9.05,4.93,6.9,3.07,14.04,5.08,21.52,6.07,6.16,.82,12.32,1.34,18.52,1.68,2.43,.13,4.86,.26,7.29,.32,1.04,.03,1.47,.2,1.31,1.56-.64,5.7-2.71,10.98-4.41,16.38-2.09,6.62-3.87,13.33-5.04,20.17-.27,1.59-.18,3.27-.02,4.88,.18,1.88,1.64,2.6,3.3,2.66,1.36,.05,2.68,.24,4.01,.51,.88-.1,.83-.77,.79-1.37-.42-6.18,2.16-11.69,4.68-17.04,4.71-10.01,10.56-19.45,17.45-28.11,3.68-4.63,7.36-9.28,11.55-13.43,2.65-2.62,5.42-5.21,8.96-7.02,2.42,14.14,4.82,28.16,7.27,42.53,3.84-3.93,6.44-8.22,8.42-12.89,3.95-9.29,5.46-19.21,7.4-29.02,1.85-9.35,3.56-18.72,7.23-27.62,4.96-12.01,13.16-20.54,25.89-25.12-1.24,10.89-2.46,21.55-3.73,32.66,2.44-3.21,4.66-6.11,6.84-9.03,5.44-7.27,10.54-14.82,16.37-21.76,7.21-8.59,16.04-15.24,26.73-19.15,2.08-.76,4.17-1.46,6.33-1.95h0c1.8-1.07,3.41,.02,4.91,.64,3.23,1.34,5.68,3.75,7.69,6.57,2.36,3.32,4.72,6.66,6.86,10.12,.72,1.17,1.38,1.12,2.41,.88,6.3-1.43,11.92-4.6,17.92-6.81,.75-.28,1.5-.54,2.25-.8h0c3.78,1.43,6.55,4.14,8.92,7.25,4.34,5.71,6.18,12.37,7.44,19.34,2.01,11.18,1.41,22.44,1.6,33.68,.02,1.02-.41,1.52-1.07,1.92-3.52,2.09-7.32,3.67-11.12,5.19-16.02,6.43-32.1,12.74-48.16,19.07-.48,.19-.97,.73-1.48,.35-.65-.48,.08-1.03,.24-1.41,.88-2.25,1.31-4.7,2.79-6.7,1.29-4.09,3.42-7.82,5.08-11.75,.33-.79,.71-1.54,.86-2.61-3.72,.86-7.11,2.31-10.51,3.73-1.56,.65-4.09,1.81-5.57,2.63-15.77,8.78-26.68,21.75-36.63,35.47-11.32,15.61-22.67,31.22-33.16,47.42-7.17,11.07-13.98,22.36-19.68,34.28-1.52,3.18-2.93,6.41-4.38,9.62-1.6,3.28-3.23,6.54-4.78,9.84-4.05,8.59-8.04,17.18-10.47,26.45-2.76,10.51-1.33,20.54,2.51,30.42,3.74,9.62,8.11,18.97,12.67,28.23,.5,1.01,.58,2.22,1.51,3.07,1.14-3.16,.76-6.48,.82-9.62,.15-7.46,.38-14.92,.62-22.37,.3-9.28,1.18-18.54,4.4-27.38,1.52-4.19,3.24-8.29,6.02-11.96,2.16,3.29,3.16,7.07,4.12,10.81,3.97,15.41,6.81,31.07,9.89,46.67,2.86,14.44,5.94,28.82,9.66,43.06,1.64,6.3,2.31,12.81,2.17,19.32-.15,7.16-.49,16.2-1.2,21.58Z"/>
      <path d="M207.41,538.89c-.08-.66,.1-6.22,.49-6.76,1.12-1.56,3.55-4.94,5.02-6.82,2.53-3.26,5.87-5.32,9.19-7.5,1.58-1.04,3.24-1.97,4.79-2.9,5.61,14.15,2.72,28.45,1.58,42.67-8.84-1.81-16.69-7.24-21.07-15.16v-3.53Z"/>
      <path d="M383.7,243.64c1.2-8.47,2.94-16.9,3.4-25.44,.44-8.03,.46-16.12-1.5-24.07-1.54-6.22-4.74-14.1-7.72-18.1-1.43,1.41-2.74,2.94-3.82,4.62-3.49,5.44-6.9,10.94-12.96,13.99-3.83-3.17-7.53-6.49-11.02-10.04-1-1.02-1.74-1-2.68-.12-4.66,4.36-8.28,9.51-11.02,15.22-2.6,5.41-4.43,11.1-5.74,17-1.71,7.74-2.71,15.54-3,23.45-.05,1.36,.24,2.78-.09,4.05-.29,1.11,.06,1.54,.81,2.08,8.05,5.92,16.08,11.85,24.12,17.78,.25,3.34,1.26,6.43,3.03,9.29,2.29,3.7,4.47,7.46,6.7,11.19,1.82,3.06,3.61,6.14,5.76,8.98,2.73,3.59,6.87,3.47,10.76,3.98,.67,.09,.65-.4,.75-.91,.32-1.68,.78-3.34,1.1-5.02,.82-4.34,1.03-8.75-1.59-12.5-3.45-4.93-3.21-9.94-1.63-15.35,1.97-6.73,5.34-12.94,6.36-20.08Z"/>
      <path d="M113.33,234.29c-9.86-2.77-19.53-6.3-30.03-5.81-2.15,.1-4.15,.6-5.88,1.74-1.68,1.11-3.43,2.64-3.07,4.87,.72,4.4,.86,4.28,5.24,6.55,.64,.33,1.31,.64,1.98,.89,7.58,2.86,15.34,4.93,23.42,5.57,1.58,.06,3.11-.27,4.56-.79,4.17-1.49,6.27-5.09,8.49-8.56,.21-.33,0-.48-.16-.67-1.32-1.49-2.29-3.16-4.57-3.8Z"/>
      <path d="M317.27,303.07c2.21,3.76,4.88,7.02,8.22,9.79,1.83,1.52,2.38,.44,6.33-2.09,2.57-1.64,4.95-3.59,6.93-5.91,3.96-4.65,6.27-10.01,6.44-16.26l-.03-.51c-1.14-8.78-6.45-14.21-14.2-17.71-.46-.21-.69-.19-1.04,.11-.85,.75-1.83,1.38-2.59,2.22-5.13,5.7-7.61,12.55-8.71,20.02-.51,3.45-.66,6.94-1.36,10.35Z"/>
      <path d="M294.23,393.69c-.56,7.01-.59,14.05-.87,21.08-.16,3.99-.08,7.98-.28,11.98-.29,5.74-.87,11.49-.49,17.26,1.27,7.3,6.38,8.08,11.22,9.31,.77,.2,.99-.45,1.02-1.33,.04-1.12,.21-2.24,.38-3.35,1.08-7.27,1.91-14.57,2.91-21.85,.63-4.59,1.32-9.17,1.97-13.76,.65-4.59,1.3-9.18,1.93-13.76,.73-5.26,1.45-10.52,2.15-15.78,.6-4.53,1.16-9.07,1.77-13.59,.75-5.59,1.54-11.18,2.32-16.76,.62-4.46,1.28-8.91,1.89-13.36,.48-3.51,.92-7.02,1.37-10.53-2.41,1.98-4.5,3.98-6.4,6.2-6.11,7.17-10.73,15.17-14.02,23.96-4.15,11.06-5.94,22.61-6.86,34.3Z"/>
      <path d="M307.27,274.03c-2.24-.9-4.04-3.07-6.56-3-3.03,.09-6.05,.78-9.08,1.12-.88,.1-.91,.72-.68,1.1,.61,1.04,.46,2.22,.66,3.3,1,5.27,1.64,10.6,2.59,15.88,.65,3.61,1.49,7.2,3.17,10.52,.25,.5,.19,1.12,1.17,.76,8.58-3.19,12.9-8.04,13.18-18.05,.36-1.25-.44-2.65-.43-4.13,.03-3.21-.56-6.1-4.02-7.5Z"/>
      <path d="M340.08,456.17c5.39,2.65,10.53,9.84,10.01,12.08-1.43,6.18,1.69,11.16-.01,21.61-.28,1.72-1.26,7.1-1.26,7.1h0s-2.72,6.34-3.95,9.92c-2.76,8.04-2.51,15.13-2.42,17.16,.07,1.57,.17,1.94,3.32,16.57,1.57,7.29,2.36,10.99,2.34,13.6-.02,2.77-.4,6.47-2.95,13.78-2.12,6.09-3.28,7.6-9.25,19.84-5.41,11.09-7.24,15.56-12.09,23.26-1.46,2.32-2.19,3.48-3.36,5.06-5.46,7.42-9.7,9.73-16.91,16.05-7.01,6.14-12.11,10.61-16.16,17.99-2.37,4.32-3.34,7.74-4.81,13.03-.28,1-.54,1.96-.8,2.91h114.84c40.62,0,73.55-32.93,73.55-73.55V0H73.55C32.93,0,0,32.93,0,73.55V208.15c5.98-1.31,12.19-3.56,18.04-7.6,4-2.76,9.02-6.22,12.2-12.62,1.97-3.96,1.54-5.63,4.8-12.52,3.69-7.78,6.17-9.73,7.35-10.54,3.1-2.13,7.32-3.3,7.54-3.37,.89-.24,1.74-.4,3.44-.71,2.55-.47,5.6-1.03,9.33-1.33,1.36-.11,4.76-.37,8.67-.13,2.56,.16,7.81,.68,14.82,3.16,7.06,2.5,9.38,4.68,19.73,10.65,7.61,4.4,12.02,6.94,18.23,9.65,5.91,2.58,14.7,5.85,25.63,7.22,7.03,.89,10.55,.43,13.45-.4,5.26-1.51,8.65-4.3,11.03-6.22,6.86-5.55,14.21-10.48,21.21-15.86,13.26-10.19,14.21-7.4,40.8-24.28,7.54-4.78,8.76-5.83,12.22-6.86,7.22-2.15,14.25-4.97,21.58-6.65,0,0,.02,0,.02-.01,0-.02-.04-.05-.04-.05-.01-.07,27.82-4.4,62.38,1.18,.41,.07,.65,.11,1.03,.17,21.75,3.7,35.65,12.75,42.34,17.84,3.46,2.63,5.62,4.69,9.28,8.16,9.1,8.66,17.73,17.03,23.01,31.92,.37,1.04,.7,2.11,.93,3.19,1.72,7.86-.26,13.18-2.69,31.96-.7,5.39-.13,4.39-1.28,11.14-1.28,7.59-2.31,15.22-3,22.89-.51,5.7-1.14,11.43-.65,17.23,.4,4.68,1.01,9.22,3.18,13.53,2.05,4.08,1.99,8.9-.33,12.83l-3.29,5.58c-1.58,2.67-3.09,4.23-4.92,5.34-1.54,.94-2.28,1.3-2.28,1.3-4.6,2.63-10.44,6.06-11.95,7.02-9.78,6.2-4.95,14.71-15.66,26.78,0,0-7.15,8.05-7.15,14.97,0,0,0,0,0,0,0,2.38-2.33,3.21-5.67,6.82-.52,.56-.94,1.06-1.74,1.42-1.21,.54-2.41,.34-3.09,.2-4.6-.94-7.28-3.53-8.48-2.72-.74,.5-.46,2.01-.32,3.2,.3,2.45-.15,2.04-1.86,13.77-.23,1.59-.66,4.85-1.5,11.38-.27,2.1-.4,3.06-1.76,13.79-.82,6.45-1.24,9.7-1.38,10.79-1.14,8.68-1.71,13.02-1.88,13.77-1.01,4.59-.75,9.41-1.85,13.98-.04,.17-.2,.78,.09,1.36,.22,.45,.61,.68,.77,.78,7.36,4.21,9.76,4.89,9.76,4.89"/>
      <path d="M273.92,306.76c.91,.78,1.78,1.29,2.83-.06,.67-.86,1.81-1.36,2.69-2.07,3.8-3.06,6.16-6.8,5.76-11.92-.17-2.14-.39-4.28-.51-6.42-.13-2.17-.18-4.62-2.54-5.93-1.26-.7-2.13-1.83-3.18-2.76-1.9-1.69-3.84-3.32-5.77-4.97-.33-.28-.54-.76-1.07-.09-4,5.1-7.14,10.52-6.95,17.66-.38,6.99,3.56,12.1,8.74,16.56Z"/>
      <path d="M275.38,538.98c-.96-.43-1.92,.76-2.93,1.13-.25,.09-.56,.04-.77,.17-2.2,1.43-4.91,2.16-5.72,5.28-1.9,7.28-2.94,14.61-1.96,22.12,.3,2.31,1.21,4.43,2.8,6.21,1.62,1.82,3.76,.73,5.33,1.05,1.6,0,2.89,.06,4.18-.01,2.21-.12,4.28-.52,4.64-3.28,.73-5.47,1.64-10.87,1.11-16.5-.47-5.08-2.27-9.45-4.84-13.66-.55-.9-1.02-2.14-1.84-2.5Z"/>
      <path d="M291.5,541.47c-.79,.8-1.07,1.59-1.03,2.82,.07,2.23-.19,4.46-.45,6.67-.68,5.66-1.05,11.23,2.95,15.96,.42,.5,.77,.81,1.52,.6,9.37-2.57,14.56-11.92,12.19-21.58-1.1-4.46-1.97-8.97-3.35-13.44-4.75,1.89-8.31,5.39-11.82,8.96Z"/>
      <path d="M254.99,552.55c-.78-3.85-.14-7.7-.73-11.56-.19-1.27-.79-1.29-1.58-1.11-5.41,1.24-10.77,2.61-14.35,7.43-.45,.6-.81,1.09-.91,1.91-.52,4.07-.5,8.17-.79,12.25-.08,1.09,.24,1.68,1.29,2.13,2.47,1.06,4.85,2.31,7.29,3.44,3.34,1.54,6.69,3.04,10.21,4.64,0-3.27-.04-3.63,.3-12.12,.09-2.35-.26-4.7-.72-7.01Z"/>
      <path d="M227.87,332.32c2.42,4.84,5.27,9.23,9.32,12.8,2.64,2.33,5.74,3.82,9.19,4.55,1.55,.3,1.21,.6,1.29-.66,.37-4.46,.81-8.91,1.2-13.37,.31-3.47,.54-6.95,.91-10.4,.57-5.37,1.02-10.76,1.52-16.13,.34-3.6,.58-7.21,.94-10.8,.41-4.11,.63-8.24,1.29-12.73-1.98,1.04-3.39,2.22-4.91,3.26-8.71,5.92-17.47,11.75-26.25,17.57-.85,.57-1.36,1.59-1.14,2.59,.27,1.22,.11,2.48,.37,3.67,1.49,6.73,3.12,13.39,6.26,19.65Z"/>
    </g>
    <g>
      <g>
        <path d="M863.34,285.61l93.74,85.53h-129.17l-81.21-77.76h-73.87v77.76h-99.36V62.7h220.75c55.73,0,147.31,8.64,147.31,115.34,0,67.82-37.15,95.9-78.19,107.57Zm-190.51-78.62h111.45c43.63,0,54-4.75,54-28.94s-10.37-28.94-54-28.94h-111.45v57.89Z"/>
        <path d="M1204.61,371.15h-230.25V62.7h230.25c55.29,0,162.86,12.53,162.86,154.22s-107.57,154.22-162.86,154.22Zm59.18-154.22c0-38.88-10.37-67.82-54-67.82h-136.08v136.08h136.08c43.63,0,54-28.94,54-68.25Z"/>
        <path d="M1763.61,216.93c21.17,18.58,31.1,43.2,31.1,66.53,0,64.37-47.09,87.69-101.95,87.69h-290.73V62.7h290.73c54.86,0,101.95,23.33,101.95,87.69,0,23.76-9.94,48.38-31.1,66.53Zm-262.65-32.4h166.32c17.71,0,28.51-2.59,28.51-19.44,0-13.39-11.23-17.28-26.78-17.28h-168.04v36.72Zm194.83,85.53c0-16.85-10.8-20.3-28.51-20.3h-166.32v36.29h168.04c15.55,0,26.78-3.46,26.78-15.98Z"/>
      </g>
      <g>
        <path d="M573.47,592.61v-176.6h106.71v19.17h-85.52v59.29h78.71v19.17h-78.71v78.96h-21.19Z"/>
        <path d="M757.64,594.88c-8.92,0-17.12-1.94-24.6-5.8-7.49-3.87-13.37-9.63-17.66-17.28-4.29-7.65-6.43-16.94-6.43-27.88v-74.68h19.93v73.16c0,12.28,3.07,21.19,9.21,26.74,6.14,5.55,14.42,8.33,24.85,8.33,11.77,0,21.44-3.87,29.01-11.6,7.57-7.73,11.35-19.26,11.35-34.56v-62.06h19.93v123.37h-19.43v-20.94h-3.53c-2.69,5.89-7.32,11.23-13.88,16.02s-16.15,7.19-28.76,7.19Z"/>
        <path d="M910.27,592.61c-7.06,0-12.49-1.93-16.27-5.8-3.78-3.87-5.68-9.17-5.68-15.89v-84.26h-37.08v-17.41h37.08v-43.9h19.93v43.9h40.37v17.41h-40.37v81.23c0,5.05,2.44,7.57,7.32,7.57h27.5v17.16h-32.8Z"/>
        <path d="M1028.08,594.88c-8.92,0-17.12-1.94-24.6-5.8-7.49-3.87-13.37-9.63-17.66-17.28-4.29-7.65-6.43-16.94-6.43-27.88v-74.68h19.93v73.16c0,12.28,3.07,21.19,9.21,26.74,6.14,5.55,14.42,8.33,24.85,8.33,11.77,0,21.44-3.87,29.01-11.6,7.57-7.73,11.35-19.26,11.35-34.56v-62.06h19.93v123.37h-19.43v-20.94h-3.53c-2.69,5.89-7.32,11.23-13.88,16.02s-16.15,7.19-28.76,7.19Z"/>
        <path d="M1135.3,592.61v-123.37h19.43v15.14h3.53c2.18-5.38,5.55-9.33,10.09-11.86,4.54-2.52,10.51-3.78,17.91-3.78h14.63v18.16h-15.89c-8.92,0-16.11,2.48-21.57,7.44-5.47,4.96-8.2,12.66-8.2,23.08v75.18h-19.93Z"/>
        <path d="M1263.96,596.14c-8.58,0-16.4-1.51-23.46-4.54-7.06-3.03-12.61-7.4-16.65-13.12-4.04-5.72-6.05-12.7-6.05-20.94s2.02-15.35,6.05-20.81c4.04-5.46,9.59-9.59,16.65-12.36,7.06-2.77,14.97-4.16,23.71-4.16h41.63v-9.08c0-8.74-2.57-15.64-7.69-20.69-5.13-5.05-12.74-7.57-22.83-7.57s-17.66,2.4-23.21,7.19c-5.55,4.79-9.33,11.23-11.35,19.3l-18.67-6.05c2.02-6.89,5.21-13.16,9.59-18.79,4.37-5.63,10.22-10.17,17.53-13.62,7.32-3.44,16.1-5.17,26.36-5.17,15.81,0,28.09,4.08,36.83,12.24,8.74,8.16,13.12,19.64,13.12,34.44v55.75c0,5.05,2.35,7.57,7.06,7.57h11.35v16.9h-17.41c-5.55,0-10.01-1.55-13.37-4.67-3.37-3.11-5.05-7.27-5.05-12.49v-1.26h-3.03c-1.85,3.2-4.33,6.52-7.44,9.96-3.11,3.45-7.36,6.31-12.74,8.58-5.38,2.27-12.36,3.41-20.94,3.41Zm2.27-17.15c11.77,0,21.32-3.49,28.63-10.47,7.32-6.98,10.97-16.78,10.97-29.39v-2.77h-40.87c-7.91,0-14.42,1.73-19.55,5.17-5.13,3.45-7.7,8.62-7.7,15.52s2.65,12.28,7.95,16.15c5.3,3.87,12.15,5.8,20.56,5.8Z"/>
      </g>
    </g>
  </g>
</svg>